# AST/ASF file generated using VICON BodyLanguage
# -----------------------------------------------
:version 1.10
:name VICON
:units
  mass 1.0
  length 0.45
  angle deg
:documentation
   .ast/.asf automatically generated from VICON data using
   VICON BodyBuilder and BodyLanguage model FoxedUp or BRILLIANT.MOD
:root
   order TX TY TZ RX RY RZ
   axis XYZ
   position 0 0 0  
   orientation 0 0 0 
:bonedata
  begin
     id 1 
     name lhipjoint
     direction 0.70531 -0.63749 0.310071 
     length 2.59589 
     axis 0 0 0  XYZ
  end
  begin
     id 2 
     name lfemur
     direction 0.34202 -0.939693 0  
     length 6.19797  
     axis 0 0 20  XYZ
    dof rx ry rz
    limits (-160.0 20.0)
           (-70.0 70.0)
           (-60.0 70.0)
  end
  begin
     id 3 
     name ltibia
     direction 0.34202 -0.939693 0   
     length 7.80054   
     axis 0 0 20   XYZ
    dof rx
    limits (-10.0 170.0)
  end
  begin
     id 4 
     name lfoot
     direction 0.0828572 -0.227648 0.970212   
     length 1.88124   
     axis -90 7.62852e-016 20   XYZ
    dof rx rz
    limits (-45.0 90.0)
           (-70.0 20.0)
  end
  begin
     id 5 
     name ltoes
     direction 1.53544e-011 -4.219e-011 1   
     length 0.948015   
     axis -90 7.62852e-016 20   XYZ
    dof rx
    limits (-90.0 20.0)
  end
  begin
     id 6 
     name rhipjoint
     direction -0.730062 -0.614543 0.29891   
     length 2.69282  
     axis 0 0 0  XYZ 
  end
  begin
     id 7 
     name rfemur
     direction -0.34202 -0.939693 0   
     length 5.86298   
     axis 0 0 -20   XYZ
    dof rx ry rz
    limits (-160.0 20.0)
           (-70.0 70.0)
           (-70.0 60.0)
  end
  begin
     id 8 
     name rtibia
     direction -0.34202 -0.939693 0   
     length 7.72374   
     axis 0 0 -20   XYZ
    dof rx
    limits (-10.0 170.0)
 end
 begin
     id 9 
     name rfoot
     direction -0.0967421 -0.265797 0.959163   
     length 2.02368  
     axis -90 -7.62852e-016 -20   XYZ
    dof rx rz
    limits (-45.0 90.0)
           (-20.0 70.0)
  end
  begin
     id 10 
     name rtoes
     direction -1.53524e-011 -4.21768e-011 1   
     length 1.01373   
     axis -90 -7.62852e-016 -20   XYZ
    dof rx
    limits (-90.0 20.0)
  end
  begin
     id 11 
     name lowerback
     direction 0.00561702 0.992801 -0.119643   
     length 2.02816   
     axis 0 0 0   XYZ
    dof rx ry rz
    limits (-20.0 45.0)
           (-30.0 30.0)
           (-30.0 30.0)
  end
  begin
     id 12 
     name upperback
     direction 0.00155544 0.995735 -0.0922509   
     length 2.02265   
     axis 0 0 0   XYZ
    dof rx ry rz
    limits (-20.0 45.0)
           (-30.0 30.0)
           (-30.0 30.0)
  end
  begin
     id 13 
     name thorax
     direction -0.000937535 0.999317 -0.0369292   
     length 2.04823   
     axis 0 0 0   XYZ
    dof rx ry rz
    limits (-20.0 45.0)
           (-30.0 30.0)
           (-30.0 30.0)
  end
  begin
     id 14 
     name lowerneck
     direction -0.0813151 0.981659 0.172436   
     length 1.8875   
     axis 0 0 0   XYZ
    dof rx ry rz
    limits (-20.0 45.0)
           (-30.0 30.0)
           (-30.0 30.0)
  end
  begin
     id 15 
     name upperneck
     direction 0.119359 0.955672 -0.269157   
     length 1.92801   
     axis 0 0 0   XYZ
    dof rx ry rz
    limits (-20.0 45.0)
           (-30.0 30.0)
           (-30.0 30.0)
  end
  begin
     id 16
     name head
     direction 0.0421007 0.992672 -0.113268  
     length 1.95809  
     axis 0 0 0   XYZ
    dof rx ry rz
    limits (-20.0 45.0)
           (-30.0 30.0)
           (-30.0 30.0)
  end
  begin
     id 17 
     name lclavicle
     direction 0.944093 0.32865 -0.0260136  
     length 3.84992  
     axis 0 0 0   XYZ
    dof ry rz
    limits (-20.0 10.0)
           (0.0 20.0)
  end
  begin
     id 18 
     name lhumerus
     direction 1 -4.48979e-011 -1.27712e-029   
     length 5.53593   
     axis 180 -30 -90   XYZ
    dof rx ry rz
    limits (-60.0 90.0)
           (-90.0 90.0)
           (-90.0 90.0)
  end
  begin
     id 19
     name lradius
     direction 1 -4.48966e-011 1.00051e-028   
     length 3.13345   
     axis 180 -30 -90   XYZ
    dof rx
    limits (-10.0 170.0)
  end
  begin
     id 20
     name lwrist
     direction 1 -4.4896e-011 2.56952e-028   
     length 1.56673   
     axis -5.12785e-016 90 90   XYZ
    dof ry
    limits (-180.0 0.0)
 end
  begin
     id 21 
     name lhand
     direction 1 -4.48934e-011 5.13905e-028   
     length 0.713374   
     axis -3.27915e-016 90 90   XYZ
    dof rx rz
    limits (-90.0 90.0)
           (-45.0 45.0)
  end
  begin
     id 22 
     name lfingers
     direction 1 -4.48973e-011 1.02781e-027   
     length 0.575141   
     axis -6.5583e-016 90 90   XYZ
    dof rx
    limits (0.0 90.0)
  end
  begin
     id 23
     name lthumb
     direction 0.707107 -6.34883e-011 0.707107   
     length 0.82579   
     axis -90 45 2.85299e-015   XYZ
    dof rx rz
    limits (-45.0 45.0)
           (-45.0 45.0)
  end
  begin
     id 24 
     name rclavicle
     direction -0.936895 0.34884 0.0232243   
     length 3.53304  
     axis 0 0 0   XYZ 
    dof ry rz
    limits (-10.0 20.0)
           (-20.0 0.0)
  end
  begin
     id 25 
     name rhumerus
     direction -1 -4.48965e-011 1.05514e-027  
     length 5.4685   
     axis 180 30 90   XYZ
    dof rx ry rz
    limits (-90.0 60.0)
           (-90.0 90.0)
           (-90.0 90.0)
  end
  begin
     id 26 
     name rradius
     direction -1 -4.48964e-011 -1.1079e-027   
     length 3.22411   
     axis 180 30 90   XYZ
    dof rx
    limits (-10.0 170.0)
  end
  begin
     id 27 
     name rwrist
     direction -1 -4.48973e-011 2.56952e-028   
     length 1.61206   
     axis -5.12785e-016 -90 -90   XYZ
    dof ry
    limits (-180.0 0.0)
  end
  begin
     id 28
     name rhand
     direction -1 -4.48957e-011 5.13905e-028   
     length 0.74528   
     axis -3.27915e-016 -90 -90   XYZ
    dof rx rz
    limits (-90.0 90.0)
           (-45.0 45.0)
  end
  begin
     id 29
     name rfingers
     direction -1 -4.4901e-011 1.02781e-027   
     length 0.600864   
     axis -6.5583e-016 -90 -90   XYZ
    dof rx
    limits (0.0 90.0)
  end
  begin
     id 30
     name rthumb
     direction -0.707107 -6.34972e-011 0.707107   
     length 0.862724   
     axis -90 -45 -2.85299e-015   XYZ
    dof rx rz
    limits (-45.0 45.0)
           (-45.0 45.0)
  end
:hierarchy
  begin
    root lhipjoint rhipjoint lowerback
    lhipjoint lfemur
    lfemur ltibia
    ltibia lfoot
    lfoot ltoes
    rhipjoint rfemur
    rfemur rtibia
    rtibia rfoot
    rfoot rtoes
    lowerback upperback
    upperback thorax
    thorax lowerneck lclavicle rclavicle
    lowerneck upperneck
    upperneck head
    lclavicle lhumerus
    lhumerus lradius
    lradius lwrist
    lwrist lhand lthumb
    lhand lfingers
    rclavicle rhumerus
    rhumerus rradius
    rradius rwrist
    rwrist rhand rthumb
    rhand rfingers
  end

#!OML:ASF G:\Work\Work\Patient Classification 1\Liu\Session 1\Liu.ASF
:FULLY-SPECIFIED
:DEGREES
324
root 10.2872 15.9813 12.5324 4.47149 -5.41901 -4.88041
lowerback 0.0796423 2.29326 5.29444
upperback 0.977952 3.03067 0.049425
thorax 1.23439 1.5649 -2.87439
lowerneck -24.5489 -4.85269 -10.9297
upperneck 30.9384 -6.26815 10.2903
head 15.8087 -2.46966 5.01329
rclavicle 2.47487e-014 1.59028e-014
rhumerus -33.235 18.9749 -86.3042
rradius 51.0361
rwrist -16.0831
rhand -20.0103 23.1055
rfingers 7.12502
rthumb 6.32988 -6.7799
lclavicle 2.47487e-014 1.59028e-014
lhumerus -44.9527 9.91185 77.5276
lradius 15.4115
lwrist -24.866
lhand -11.1633 30.619
lfingers 7.12502
lthumb 14.8632 60.0659
rfemur 29.5801 0.795411 25.5713
rtibia -5.08889e-014
rfoot 16.7273 -1.44229
rtoes -14.812
lfemur -38.8334 0.693584 -17.4119
ltibia 28.519
lfoot 0.232031 10.97
ltoes -3.71678
325
root 10.2945 15.978 12.7636 4.07957 -5.53927 -4.25065
lowerback 0.480024 2.36226 4.47867
upperback 1.02792 3.14775 -0.12832
thorax 1.03624 1.61354 -2.61713
lowerneck -24.3288 -4.91302 -11.0628
upperneck 30.9922 -6.38767 10.4447
head 15.8166 -2.5205 5.08349
rclavicle 2.82771e-014 -1.27222e-014
rhumerus -33.538 18.4682 -86.3704
rradius 50.7071
rwrist -16.3614
rhand -19.9036 23.4682
rfingers 7.12502
rthumb 6.43291 -6.41408
lclavicle 2.82771e-014 -1.27222e-014
lhumerus -45.129 11.1099 76.3063
lradius 15.1152
lwrist -26.629
lhand -10.9965 30.7181
lfingers 7.12502
lthumb 15.0238 60.153
rfemur 23.3986 0.465334 24.574
rtibia 12.2161
rfoot 15.7771 -2.28102
rtoes -10.4566
lfemur -38.2478 1.77174 -18.6384
ltibia 29.3694
lfoot 1.13774 9.79855
ltoes -4.52714
326
root 10.3024 15.9894 13.0049 3.82696 -5.43577 -3.3529
lowerback 0.601032 2.38553 3.46037
upperback 1.05008 3.18554 -0.372268
thorax 0.950927 1.62386 -2.30435
lowerneck -24.3328 -5.0092 -11.1309
upperneck 31.1775 -6.52476 10.4628
head 15.9324 -2.5856 5.08613
rclavicle -3.14825e-014 0
rhumerus -33.8305 18.0303 -86.4007
rradius 50.3126
rwrist -16.3435
rhand -19.7158 23.437
rfingers 7.12502
rthumb 6.61421 -6.43968
lclavicle -3.14825e-014 0
lhumerus -45.16 12.0627 75.3032
lradius 14.7643
lwrist -28.0521
lhand -10.5083 30.9209
lfingers 7.12502
lthumb 15.4941 60.32
rfemur 20.0763 -0.269476 23.1782
rtibia 19.0847
rfoot 16.3556 -2.69079
rtoes -9.34434
lfemur -37.6953 2.52529 -20.0905
ltibia 30.0394
lfoot 1.64557 8.49307
ltoes -4.45322
327
root 10.3152 16.0147 13.2543 3.67065 -5.21069 -2.39717
lowerback 0.456514 2.3339 2.44897
upperback 1.15009 3.11343 -0.637426
thorax 1.08936 1.58349 -2.0034
lowerneck -24.4982 -5.08098 -11.0533
upperneck 31.3725 -6.61955 10.3426
head 16.0702 -2.63023 5.01018
rclavicle -3.13086e-015 -6.36111e-015
rhumerus -33.9736 17.8218 -86.4376
rradius 49.9044
rwrist -16.0718
rhand -19.7644 23.2509
rfingers 7.12502
rthumb 6.56724 -6.62723
lclavicle -3.13086e-015 -6.36111e-015
lhumerus -45.0452 12.8757 74.4739
lradius 14.4151
lwrist -29.2876
lhand -10.3855 30.7404
lfingers 7.12502
lthumb 15.6123 60.1304
rfemur 17.2581 -1.21067 21.643
rtibia 24.8082
rfoot 17.2766 -2.34175
rtoes -10.5709
lfemur -36.9594 3.04791 -21.5686
ltibia 30.4684
lfoot 1.79799 7.18305
ltoes -4.16452
328
root 10.3322 16.0447 13.4904 3.54584 -5.0427 -1.7068
lowerback 0.483186 2.28115 1.74836
upperback 1.17893 3.046 -0.838822
thorax 1.07413 1.54431 -1.81991
lowerneck -24.2795 -5.07927 -11.034
upperneck 31.3704 -6.62056 10.2662
head 16.0139 -2.64431 4.97101
rclavicle -8.15017e-015 -7.15625e-015
rhumerus -34.2265 17.6408 -86.5427
rradius 49.5848
rwrist -15.7209
rhand -19.9022 22.9774
rfingers 7.12502
rthumb 6.43424 -6.90484
lclavicle -8.15017e-015 -7.15625e-015
lhumerus -45.0129 13.4799 73.8394
lradius 14.3098
lwrist -30.0866
lhand -10.2303 30.6735
lfingers 7.12502
lthumb 15.7618 60.0517
rfemur 14.6211 -1.88993 20.5255
rtibia 29.954
rfoot 18.9238 -3.06294
rtoes -8.49921
lfemur -36.0396 3.39055 -22.6409
ltibia 30.634
lfoot 1.42597 6.26867
ltoes -3.96164
329
root 10.3533 16.081 13.7265 3.43591 -4.99417 -0.886147
lowerback 0.602827 2.26212 1.02935
upperback 1.13197 3.02428 -1.14741
thorax 0.937044 1.52703 -1.74127
lowerneck -24.1911 -5.08391 -10.9847
upperneck 31.5162 -6.66494 10.2479
head 16.068 -2.6631 4.95302
rclavicle 2.5842e-014 -2.78299e-015
rhumerus -34.5366 17.3716 -86.8033
rradius 49.1686
rwrist -15.5541
rhand -19.7734 22.4006
rfingers 7.12502
rthumb 6.55854 -7.47784
lclavicle 2.5842e-014 -2.78299e-015
lhumerus -44.8825 13.6561 73.4638
lradius 14.2469
lwrist -29.9649
lhand -10.4406 30.6461
lfingers 7.12502
lthumb 15.5593 60.0402
rfemur 12.1082 -2.49041 19.2538
rtibia 34.7291
rfoot 21.0581 -4.8631
rtoes -4.48349
lfemur -34.9634 3.55595 -23.752
ltibia 30.6033
lfoot 0.530763 5.8192
ltoes -1.90291
330
root 10.3753 16.1213 13.967 3.21931 -4.99209 0.0658159
lowerback 0.587041 2.25249 0.256891
upperback 1.25859 3.01511 -1.52335
thorax 1.05559 1.51861 -1.69111
lowerneck -24.2239 -5.11243 -10.9164
upperneck 31.5686 -6.75941 10.3014
head 16.1157 -2.6862 4.94824
rclavicle 2.32578e-014 -1.27222e-014
rhumerus -34.6965 17.0671 -87.0684
rradius 48.7165
rwrist -15.6111
rhand -19.5193 22.1791
rfingers 7.12502
rthumb 6.80391 -7.69161
lclavicle 2.32578e-014 -1.27222e-014
lhumerus -44.4221 13.3181 73.564
lradius 14.2801
lwrist -29.2408
lhand -10.8904 30.6316
lfingers 7.12502
lthumb 15.1261 60.0588
rfemur 9.79955 -3.06765 17.8507
rtibia 39.2621
rfoot 21.0761 -4.76078
rtoes -5.87983
lfemur -33.6107 3.68157 -24.9512
ltibia 30.3503
lfoot -0.236806 5.27502
ltoes 0.00200152
331
root 10.3964 16.1643 14.2068 2.93525 -4.98394 0.844661
lowerback 0.572974 2.23316 -0.380515
upperback 1.40622 2.99434 -1.78642
thorax 1.19567 1.50396 -1.60066
lowerneck -23.9408 -5.12998 -10.9719
upperneck 31.4102 -6.81706 10.4
head 15.9902 -2.70912 4.98017
rclavicle -9.34288e-015 1.51076e-014
rhumerus -34.9237 16.8295 -87.2561
rradius 48.38
rwrist -15.5926
rhand -19.2881 22.168
rfingers 7.12502
rthumb 7.02702 -7.69534
lclavicle -9.34288e-015 1.51076e-014
lhumerus -44.0299 12.8276 73.9
lradius 14.4596
lwrist -28.5923
lhand -10.7305 30.8266
lfingers 7.12502
lthumb 15.2801 60.2422
rfemur 7.5327 -3.6149 16.7352
rtibia 43.6303
rfoot 21.682 -5.76624
rtoes -5.65843
lfemur -31.9756 3.76444 -25.8864
ltibia 29.832
lfoot -0.78369 4.56261
ltoes -0.588805
332
root 10.4147 16.2082 14.4317 2.7383 -5.0316 1.62584
lowerback 0.771681 2.18785 -1.11953
upperback 1.39339 2.93114 -2.0075
thorax 1.04432 1.46553 -1.42406
lowerneck -23.7002 -5.07393 -10.9852
upperneck 31.4308 -6.75716 10.4033
head 15.9358 -2.69201 4.99732
rclavicle 7.45443e-016 2.78299e-015
rhumerus -35.2007 16.8235 -87.5593
rradius 47.954
rwrist -16.0026
rhand -19.0274 22.1284
rfingers 7.12502
rthumb 7.27875 -7.72644
lclavicle 7.45443e-016 2.78299e-015
lhumerus -43.8142 12.3755 74.2013
lradius 14.6638
lwrist -27.747
lhand -10.4004 30.9541
lfingers 7.12502
lthumb 15.5981 60.3452
rfemur 4.96352 -4.05544 15.7801
rtibia 47.8664
rfoot 22.3922 -7.84223
rtoes -4.78987
lfemur -30.4037 3.80946 -26.7749
ltibia 29.0806
lfoot -1.31602 4.1302
ltoes -1.41563
333
root 10.4303 16.2446 14.632 2.73864 -5.2309 2.3228
lowerback 1.1308 2.13817 -1.82274
upperback 1.29207 2.84963 -2.20769
thorax 0.714262 1.41992 -1.25457
lowerneck -23.8408 -4.91332 -10.8261
upperneck 31.615 -6.51031 10.2096
head 16.001 -2.59474 4.9452
rclavicle -1.16786e-014 1.11319e-014
rhumerus -35.3186 17.0667 -87.9652
rradius 47.4426
rwrist -16.8867
rhand -18.8099 22.0225
rfingers 7.12502
rthumb 7.48866 -7.82497
lclavicle -1.16786e-014 1.11319e-014
lhumerus -43.5019 11.9811 74.5219
lradius 14.8867
lwrist -26.7319
lhand -10.3855 30.857
lfingers 7.12502
lthumb 15.6123 60.247
rfemur 2.02391 -4.31114 15.0755
rtibia 51.9531
rfoot 22.2967 -10.6795
rtoes -2.83365
lfemur -29.1798 3.91917 -27.5811
ltibia 28.1776
lfoot -1.75802 3.96829
ltoes -1.88382
334
root 10.449 16.2822 14.8373 2.87277 -5.38403 2.96894
lowerback 1.22219 2.0528 -2.39606
upperback 1.2017 2.72593 -2.41825
thorax 0.553368 1.35531 -1.15592
lowerneck -24.0222 -4.79077 -10.6815
upperneck 31.7081 -6.31594 10.05
head 16.0435 -2.51494 4.8945
rclavicle 4.42296e-015 6.36111e-015
rhumerus -35.4201 17.2284 -88.3395
rradius 47.048
rwrist -17.1416
rhand -18.6542 21.7222
rfingers 7.12502
rthumb 7.63892 -8.1198
lclavicle 4.42296e-015 6.36111e-015
lhumerus -43.1351 11.2015 75.1766
lradius 15.2971
lwrist -25.1295
lhand -10.6901 30.8808
lfingers 7.12502
lthumb 15.3191 60.2934
rfemur -0.857805 -4.67191 14.4196
rtibia 55.7024
rfoot 20.7606 -13.1959
rtoes -1.43854
lfemur -27.9892 4.04762 -28.3957
ltibia 27.198
lfoot -2.1793 3.67692
ltoes -3.07262
